<svg width="116" height="20" viewBox="0 0 116 20" fill="none" xmlns="http://www.w3.org/2000/svg">
<path d="M98.3113 15.6343C97.4217 15.6343 96.6968 15.3542 96.1202 14.7776C95.5436 14.2175 95.1976 13.4761 95.0823 12.5536H103.007C102.974 10.659 102.43 9.22571 101.409 8.27019C100.387 7.31467 99.2339 6.83691 97.9654 6.83691C96.6804 6.83691 95.5271 7.33115 94.5387 8.31962C93.5502 9.30808 93.0395 10.5601 93.0395 12.0758C93.0395 13.6738 93.5502 14.9588 94.5716 15.8979C95.593 16.8369 96.8286 17.3147 98.2619 17.3147C99.1845 17.3147 100.074 17.1005 100.931 16.6886C101.787 16.2768 102.842 14.9094 103.007 14.0033H100.832C100.371 15.1236 99.5963 15.6343 98.3113 15.6343ZM96.1202 9.17629C96.6474 8.66558 97.2734 8.41846 98.0148 8.41846C98.822 8.41846 99.514 8.69853 100.074 9.25866C100.634 9.81879 100.98 10.4448 101.112 11.1532H95.1647C95.28 10.346 95.593 9.687 96.1202 9.17629Z" fill="#B6A012"/>
<path d="M91.6557 4.56342H93.0395V2.78418H88.6079L85 10.626L81.4415 2.78418H76.911V4.56342H78.4431V15.2389H76.911V17.0181H81.5239V15.2389H80.1071V4.56342L84.7364 15.2389H85.1318L89.8105 4.56342V15.2389H88.4431V17.0181H93.0395V15.2389H91.6557V4.56342Z" fill="#B6A012"/>
<path d="M110.42 17.3147C113.313 17.3147 115.659 14.9691 115.659 12.0758C115.659 9.18244 113.313 6.83691 110.42 6.83691C107.527 6.83691 105.181 9.18244 105.181 12.0758C105.181 14.9691 107.527 17.3147 110.42 17.3147Z" fill="#EBD32F"/>
<path d="M111.936 13.4266V11.1202H110.997V11.6145H111.409V13.4431H111.145H110.997H110.7V12.1416C110.7 11.911 110.684 11.7462 110.667 11.6474C110.651 11.5486 110.601 11.4497 110.519 11.3509C110.453 11.2685 110.338 11.1861 110.189 11.1367C110.041 11.0873 109.876 11.0543 109.679 11.0543C109.135 11.0543 108.756 11.2685 108.525 11.7133L109.02 11.8451C109.135 11.6309 109.333 11.5156 109.596 11.5156C109.745 11.5156 109.876 11.5486 109.959 11.6145C110.058 11.6804 110.107 11.7462 110.14 11.8286C110.173 11.911 110.173 12.0098 110.173 12.1581V12.4382C109.942 12.2734 109.695 12.2075 109.448 12.2075C109.184 12.2075 108.954 12.2899 108.756 12.4711C108.558 12.6523 108.476 12.8665 108.476 13.1136C108.476 13.3772 108.558 13.5914 108.74 13.7561C108.921 13.9209 109.135 14.0033 109.366 14.0033C109.679 14.0033 109.959 13.8715 110.206 13.6079V13.9538H110.964H111.112H112.298V13.4596H111.936V13.4266ZM110.189 13.2125C109.959 13.4431 109.728 13.542 109.465 13.542C109.316 13.542 109.201 13.4925 109.119 13.4102C109.036 13.3278 108.987 13.2125 108.987 13.0807C108.987 12.9324 109.036 12.8171 109.135 12.7347C109.234 12.6523 109.349 12.6029 109.497 12.6029C109.728 12.6029 109.959 12.7018 110.189 12.883V13.2125Z" fill="white"/>
<path d="M111.936 10.1813H111.211V10.9062H111.936V10.1813Z" fill="white"/>
<path d="M31.2274 15.2389V4.5799H29.2669V2.80066H35.0494C36.2521 2.80066 37.2076 2.89951 37.916 3.08073C38.6244 3.26195 39.2175 3.65733 39.6788 4.26689C40.14 4.87644 40.3707 5.61779 40.3707 6.52389C40.3707 8.40198 39.3987 9.58814 37.4382 10.0659L39.9423 15.2389H41.6722V17.0181H38.5914L35.346 10.3789H33.3361V15.2389H35.1483V17.0181H29.2339V15.2389H31.2274ZM33.369 8.59967H35.0494C35.8567 8.59967 36.4662 8.55025 36.8451 8.43493C37.2241 8.33608 37.5536 8.12191 37.7842 7.79242C38.0313 7.46293 38.1466 7.0346 38.1466 6.49094C38.1466 6.02966 38.0148 5.63427 37.7677 5.32125C37.5206 5.00824 37.2076 4.79407 36.8451 4.7117C36.4827 4.62933 35.9226 4.5799 35.1812 4.5799H33.369V8.59967Z" fill="#B6A012"/>
<path d="M51.9193 15.2883V17.0181H48.5256V15.8155C47.5865 16.7216 46.5321 17.1829 45.3789 17.1829C44.4728 17.1829 43.6985 16.8863 43.0396 16.3097C42.3806 15.7167 42.0511 14.9753 42.0511 14.0527C42.0511 13.1302 42.3971 12.3723 43.1055 11.7628C43.8139 11.1532 44.6541 10.8567 45.659 10.8567C46.5816 10.8567 47.4877 11.1368 48.3443 11.6969V10.7084C48.3443 10.1977 48.2949 9.81879 48.1961 9.53873C48.0972 9.25866 47.883 9.02802 47.5206 8.79738C47.1746 8.58321 46.7134 8.46789 46.1532 8.46789C45.1812 8.46789 44.7035 8.86327 44.2751 9.63757H42.1664C43.3855 7.14993 44.4234 6.83691 46.4333 6.83691C47.1746 6.83691 47.8171 6.93576 48.3608 7.13345C48.9045 7.33115 49.2998 7.59474 49.5799 7.90776C49.8435 8.22077 50.0247 8.56673 50.1236 8.92917C50.2224 9.29161 50.2554 9.88469 50.2554 10.6919V15.2718H51.9193V15.2883ZM48.3279 13.3443C47.4877 12.6853 46.6475 12.3559 45.7743 12.3559C45.2307 12.3559 44.7858 12.5206 44.4234 12.8336C44.061 13.1466 43.8798 13.5585 43.8798 14.0527C43.8798 14.514 44.0445 14.9094 44.3575 15.2224C44.6705 15.5354 45.0989 15.7002 45.6425 15.7002C46.5816 15.7002 47.4712 15.3048 48.3114 14.514V13.3443H48.3279Z" fill="#B6A012"/>
<path d="M56.2356 7.1335V8.33613C57.4876 7.43004 58.6244 6.98523 59.6458 6.98523C60.2883 6.98523 60.8155 7.1335 61.2273 7.44651C61.6392 7.74306 61.9193 8.12197 62.0511 8.56678C62.1829 9.01159 62.2487 9.65409 62.2487 10.4943V15.3213H63.9127V17.0511H60.3048V10.5767C60.3048 9.83531 60.1894 9.34108 59.9753 9.11043C59.7446 8.87979 59.481 8.76447 59.1515 8.76447C58.2949 8.76447 57.3229 9.17633 56.2356 10.0165V15.3048H57.9489V17.0347H52.5453V15.3048H54.2751V8.86332H52.5453V7.1335H56.2356Z" fill="#B6A012"/>
<path d="M66.3674 15.2883V4.53048H64.5881V2.80066H68.3114V11.6804L72.0181 8.73147H70.3707V7.13344H75.8402V8.73147H74.3245L70.6178 11.8122L74.1104 15.2883H75.8402V17.0181H73.2866L68.2949 12.0428V15.2883H70.0082V17.0181H64.5881V15.2883H66.3674Z" fill="#B6A012"/>
<path d="M20.486 9.81878L10.6672 0L0.864909 9.81878C-0.288303 10.972 -0.288303 12.8666 0.864909 14.0198C2.01812 15.173 3.91268 15.173 5.0659 14.0198L8.57496 10.5107C9.72817 9.3575 11.6227 9.3575 12.7759 10.5107L16.285 14.0198C17.4382 15.173 19.3328 15.173 20.486 14.0198C21.6557 12.8666 21.6557 10.972 20.486 9.81878Z" fill="#EBD32F"/>
<path d="M9.56345 12.7018L6.46625 15.799L10.6672 20L14.8682 15.799L11.7875 12.7018C11.1779 12.0922 10.173 12.0922 9.56345 12.7018Z" fill="#B6A012"/>
</svg>
