<svg width="14" height="14" viewBox="0 0 14 14" fill="none" xmlns="http://www.w3.org/2000/svg">
<path d="M10.8643 8.18748H7.26415C6.45121 8.18748 5.7544 7.49067 5.7544 6.67773V3.1356C5.81246 2.67106 5.46406 2.32265 4.99952 2.38072C1.8058 2.84526 -0.574975 5.86478 0.121836 9.34884C0.52831 11.6135 2.38647 13.4136 4.65111 13.8781C8.0771 14.5749 11.1547 12.1942 11.6192 9.00043C11.6773 8.53589 11.3289 8.18748 10.8643 8.18748Z" fill="#EBD32F"/>
<path d="M13.9419 6.21324C13.7677 4.64541 13.0709 3.19372 11.9096 2.03237C10.8063 0.929082 9.29652 0.174203 7.7287 0C7.32222 0 6.97382 0.348406 6.97382 0.754879V6.44551C6.97382 6.79391 7.26415 7.02618 7.55449 7.02618H13.2451C13.6516 7.02618 14 6.67778 13.9419 6.21324Z" fill="#B6A012"/>
</svg>
