<svg width="14" height="14" viewBox="0 0 14 14" fill="none" xmlns="http://www.w3.org/2000/svg">
<path d="M7 0C3.13367 0 0 3.13367 0 7C0 10.8663 3.13367 14 7 14C10.8663 14 14 10.8663 14 7C14 3.13367 10.8663 0 7 0ZM7.77778 10.122V10.8889H6.22222V10.1282C5.138 9.92211 4.47378 9.26956 4.45356 8.30822H5.92822C5.96633 8.75078 6.40811 9.03311 7.04822 9.03311C7.62533 9.03311 8.022 8.75467 8.022 8.35411C8.022 8.01733 7.756 7.83611 7.06144 7.69689L6.26111 7.53667C5.14889 7.32589 4.57567 6.71922 4.57567 5.76333C4.57567 4.80122 5.20722 4.11522 6.223 3.88578V3.11111H7.77856V3.89122C8.76478 4.123 9.40878 4.78956 9.429 5.69178H8.001C7.96756 5.26244 7.55922 4.963 7.01478 4.963C6.47033 4.963 6.11333 5.22044 6.11333 5.62489C6.11333 5.95778 6.38322 6.15144 7.02333 6.27744L7.80733 6.42911C9.00822 6.66089 9.54722 7.20456 9.54722 8.169C9.54644 9.20811 8.88844 9.90189 7.77778 10.122Z" fill="#B6A012"/>
</svg>
