<svg width="15" height="12" viewBox="0 0 15 12" fill="none" xmlns="http://www.w3.org/2000/svg">
<path d="M12.5 0H2.5C1.125 0 0 1.125 0 2.5V8.75C0 10.125 1.125 11.25 2.5 11.25H12.5C13.875 11.25 15 10.125 15 8.75V2.5C15 1.125 13.875 0 12.5 0ZM13.5 3.625L8.5625 6.9375C8.25 7.125 7.875 7.25 7.5 7.25C7.125 7.25 6.75 7.125 6.4375 6.9375L1.5 3.625C1.25 3.4375 1.1875 3.0625 1.375 2.75C1.5625 2.5 1.9375 2.4375 2.25 2.625L7.1875 5.9375C7.375 6.0625 7.6875 6.0625 7.875 5.9375L12.8125 2.625C13.125 2.4375 13.5 2.5 13.6875 2.8125C13.8125 3.0625 13.75 3.4375 13.5 3.625Z" fill="white"/>
</svg>
