<svg width="14" height="14" viewBox="0 0 14 14" fill="none" xmlns="http://www.w3.org/2000/svg">
<path d="M6.97148 5.94296C8.0603 5.94296 8.94296 5.0603 8.94296 3.97148C8.94296 2.88266 8.0603 2 6.97148 2C5.88266 2 5 2.88266 5 3.97148C5 5.0603 5.88266 5.94296 6.97148 5.94296Z" fill="#B6A012"/>
<path d="M5.48926 13.877H8.45895C8.73346 13.877 8.91974 9.28691 8.91974 9.03735V8.96249C8.91974 7.78958 7.89657 6.86623 6.69871 7.01596C5.70049 7.14074 5.00174 8.03913 5.00174 9.03735C4.97679 9.28691 5.21475 13.877 5.48926 13.877Z" fill="#B6A012"/>
<path d="M10.4893 13.8983H13.459C13.7336 13.8983 14 7.28691 14 7.03735V6.96249C14 5.78958 12.9768 4.86623 11.779 5.01596C10.7807 5.14074 10.082 6.03914 10.082 7.03735C10.057 7.28691 10.2148 13.8983 10.4893 13.8983Z" fill="#EBD32F"/>
<path d="M11.9715 3.94296C13.0603 3.94296 13.943 3.0603 13.943 1.97148C13.943 0.882662 13.0603 0 11.9715 0C10.8827 0 10 0.882662 10 1.97148C10 3.0603 10.8827 3.94296 11.9715 3.94296Z" fill="#EBD32F"/>
<path d="M1.97148 6.94296C3.0603 6.94296 3.94296 6.0603 3.94296 4.97148C3.94296 3.88266 3.0603 3 1.97148 3C0.882661 3 0 3.88266 0 4.97148C0 6.0603 0.882661 6.94296 1.97148 6.94296Z" fill="#EBD32F"/>
<path d="M0.489391 13.877H3.45909C3.7336 13.877 3.9198 10.2709 3.9198 10.0214V9.94649C3.9198 8.77359 2.89663 7.85024 1.69877 7.99997C0.700554 8.12475 0.001801 9.02314 0.001801 10.0214C-0.0231544 10.2709 0.214881 13.877 0.489391 13.877Z" fill="#EBD32F"/>
</svg>
