<svg width="11" height="10" viewBox="0 0 11 10" fill="none" xmlns="http://www.w3.org/2000/svg">
<path fill-rule="evenodd" clip-rule="evenodd" d="M10.8446 5C10.8446 7.76142 8.60603 10 5.8446 10C3.08318 10 0.844604 7.76142 0.844604 5C0.844604 2.23858 3.08318 0 5.8446 0C8.60603 0 10.8446 2.23858 10.8446 5ZM5.01111 4.99984C5.01111 4.5396 5.3842 4.1665 5.84444 4.1665C6.30468 4.1665 6.67777 4.5396 6.67777 4.99984V7.49984C6.67777 7.96007 6.30468 8.33317 5.84444 8.33317C5.3842 8.33317 5.01111 7.96007 5.01111 7.49984V4.99984ZM5.84444 1.6665C5.3842 1.6665 5.01111 2.0396 5.01111 2.49984C5.01111 2.96007 5.3842 3.33317 5.84444 3.33317C6.30468 3.33317 6.67777 2.96007 6.67777 2.49984C6.67777 2.0396 6.30468 1.6665 5.84444 1.6665Z" fill="white"/>
</svg>
