<svg width="14" height="14" viewBox="0 0 14 14" fill="none" xmlns="http://www.w3.org/2000/svg">
<path fill-rule="evenodd" clip-rule="evenodd" d="M0.339241 11.1476C-0.11308 11.5993 -0.11308 12.3346 0.339241 12.7866C0.791241 13.2388 1.52642 13.2388 1.97533 12.7866L2.30204 12.463L3.6644 13.825C3.89736 14.0583 4.27074 14.0583 4.50403 13.825L6.53431 11.7947C6.76763 11.5618 6.76763 11.1883 6.53431 10.955L5.17224 9.59303L7.59872 7.16347C8.11795 7.43174 8.70979 7.5832 9.33414 7.5832C11.4283 7.5832 13.1258 5.88599 13.1258 3.79163C13.1258 1.69754 11.4283 0 9.33414 0C7.23985 0 5.54254 1.69754 5.54254 3.79163C5.54254 4.41599 5.6941 5.00786 5.96234 5.52708L0.339241 11.1476ZM7.8758 3.79163C7.8758 2.98667 8.52921 2.33326 9.33411 2.33326C10.1391 2.33326 10.7924 2.98667 10.7924 3.79163C10.7924 4.5966 10.1391 5.24991 9.33411 5.24991C8.52924 5.24991 7.8758 4.59657 7.8758 3.79163Z" fill="#EBD32F"/>
</svg>
