<svg width="13" height="14" viewBox="0 0 13 14" fill="none" xmlns="http://www.w3.org/2000/svg">
<rect x="0.651611" y="2.21545" width="11.0771" height="11.0771" fill="#EBD32F"/>
<path fill-rule="evenodd" clip-rule="evenodd" d="M11.8125 1.75C11.5707 1.75 11.375 1.55433 11.375 1.3125C11.375 1.07067 11.5707 0.875 11.8125 0.875C12.0543 0.875 12.25 0.679328 12.25 0.4375C12.25 0.195672 12.0543 0 11.8125 0H1.3125C0.587891 0 0 0.587453 0 1.3125V13.125C0 13.6082 0.391344 14 0.875 14H11.375C11.8587 14 12.25 13.6082 12.25 13.125V2.1875C12.25 1.94567 12.0543 1.75 11.8125 1.75ZM11.375 13.125H0.875V2.54472C1.01259 2.59339 1.15872 2.625 1.3125 2.625H3.5V1.75H1.3125C1.07155 1.75 0.875 1.55389 0.875 1.3125C0.875 1.07111 1.07155 0.875 1.3125 0.875H10.5803C10.5316 1.01259 10.5 1.15828 10.5 1.3125C10.5 1.46672 10.5316 1.61241 10.5803 1.75H5.25V2.625H11.375V13.125Z" fill="#EBD32F"/>
<path d="M6 0.5H3V6L4.5 5L6 6V0.5Z" fill="#B6A012"/>
<path d="M5.25 0.875V4.88775L4.375 4.01253L3.5 4.88775V0.875H5.25ZM6.125 0H2.625V7L4.375 5.25L6.125 7V0Z" fill="#B6A012"/>
</svg>
