<svg width="14" height="14" viewBox="0 0 14 14" fill="none" xmlns="http://www.w3.org/2000/svg">
<path d="M13.9939 4.37083C13.9945 4.52474 13.9544 4.67608 13.8777 4.80953C13.8009 4.94298 13.6902 5.05379 13.5568 5.13075L7.43712 8.62463C7.30422 8.70129 7.15346 8.74165 7 8.74165C6.84654 8.74165 6.69578 8.70129 6.56288 8.62463L0.443195 5.13075C0.308651 5.05456 0.196741 4.94409 0.118882 4.81059C0.0410222 4.67709 0 4.52534 0 4.37083C0 4.21632 0.0410222 4.06457 0.118882 3.93107C0.196741 3.79757 0.308651 3.68709 0.443195 3.61091L6.56288 0.117023C6.69578 0.04036 6.84654 0 7 0C7.15346 0 7.30422 0.04036 7.43712 0.117023L13.5568 3.61091C13.6902 3.68786 13.8009 3.79868 13.8777 3.93212C13.9544 4.06557 13.9945 4.21691 13.9939 4.37083Z" fill="#EBD32F"/>
<path d="M13.5568 7.87347L12.0619 7L8.30262 9.14874C7.90716 9.37972 7.45806 9.50319 7 9.50686C6.54648 9.50699 6.10068 9.38962 5.70612 9.16621L1.93815 7.01747L0.443195 7.89094C0.308651 7.96712 0.196741 8.0776 0.118882 8.2111C0.0410222 8.3446 0 8.49635 0 8.65086C0 8.80537 0.0410222 8.95712 0.118882 9.09062C0.196741 9.22412 0.308651 9.3346 0.443195 9.41078L6.56288 12.9047C6.69578 12.9813 6.84654 13.0217 7 13.0217C7.15346 13.0217 7.30422 12.9813 7.43712 12.9047L13.5568 9.41078C13.6913 9.3346 13.8033 9.22412 13.8811 9.09062C13.959 8.95712 14 8.80537 14 8.65086C14 8.49635 13.959 8.3446 13.8811 8.2111C13.8033 8.0776 13.6913 7.96712 13.5568 7.89094V7.87347Z" fill="#B6A012"/>
</svg>
