<svg width="14" height="13" viewBox="0 0 14 13" fill="none" xmlns="http://www.w3.org/2000/svg">
<path d="M2.54545 6.36365H1.27273C0.572727 6.36365 0 6.93637 0 7.63637V11.4546C0 12.1546 0.572727 12.7273 1.27273 12.7273H2.54545C3.24545 12.7273 3.81818 12.1546 3.81818 11.4546V7.63637C3.81818 6.93637 3.24545 6.36365 2.54545 6.36365Z" fill="#EBD32F"/>
<path d="M7.63634 0H6.36361C5.66361 0 5.09088 0.572727 5.09088 1.27273V11.4545C5.09088 12.1545 5.66361 12.7273 6.36361 12.7273H7.63634C8.33634 12.7273 8.90906 12.1545 8.90906 11.4545V1.27273C8.90906 0.572727 8.33634 0 7.63634 0Z" fill="#B6A012"/>
<path d="M12.7272 3.81812H11.4545C10.7545 3.81812 10.1818 4.39084 10.1818 5.09084V11.4545C10.1818 12.1545 10.7545 12.7272 11.4545 12.7272H12.7272C13.4272 12.7272 13.9999 12.1545 13.9999 11.4545V5.09084C13.9999 4.39084 13.4272 3.81812 12.7272 3.81812Z" fill="#EBD32F"/>
</svg>
