<svg width="16" height="15" viewBox="0 0 16 15" fill="none" xmlns="http://www.w3.org/2000/svg">
<path d="M8.22544 12.95H5.77306C5.28259 12.95 4.86218 13.4966 5.14245 13.975C5.56286 14.59 6.26354 15 7.03428 15C7.80503 15 8.50571 14.59 8.85605 13.975C9.13632 13.4966 8.78598 12.95 8.22544 12.95Z" fill="white"/>
<path d="M13.9009 10.6948L13.6206 10.3531C12.4996 8.91806 11.939 7.20965 11.939 5.4329V4.95455C11.939 2.49444 10.1172 0.307672 7.59481 0.0343264C4.65196 -0.307356 2.12952 1.94775 2.12952 4.74954V5.4329C2.12952 7.20965 1.56898 8.91806 0.447895 10.3531L0.167624 10.6948C0.027488 10.8315 -0.0425799 11.1048 0.0274879 11.2415C0.237691 11.8565 0.798234 12.2665 1.42884 12.2665H12.6397C13.2703 12.2665 13.8308 11.8565 13.971 11.2415C14.041 11.0365 13.971 10.8315 13.9009 10.6948Z" fill="white"/>
<circle cx="13.5" cy="12.5" r="2.5" fill="#ED1C24"/>
</svg>
