<svg width="13" height="14" viewBox="0 0 13 14" fill="none" xmlns="http://www.w3.org/2000/svg">
<path d="M6.45023 6.82967C8.33619 6.82967 9.86507 5.30079 9.86507 3.41483C9.86507 1.52887 8.33619 0 6.45023 0C4.56427 0 3.0354 1.52887 3.0354 3.41483C3.0354 5.30079 4.56427 6.82967 6.45023 6.82967Z" fill="#EBD32F"/>
<path d="M9.42988 6.78186C8.63538 7.48536 7.59442 7.91615 6.45021 7.91615C5.31125 7.91615 4.27438 7.48944 3.48133 6.79207C1.41313 7.92082 0 10.1853 0 12.7966C0 13.2076 0.0370417 13.6092 0.103833 14H12.8266C12.8934 13.6092 12.9302 13.2076 12.9302 12.7966C12.9302 10.1777 11.5086 7.90682 9.42988 6.78186Z" fill="#B6A012"/>
</svg>
