<svg width="12" height="14" viewBox="0 0 12 14" fill="none" xmlns="http://www.w3.org/2000/svg">
<path d="M7.0357 2.63153V0H0V14H9.83625C10.5636 14 11.16 13.4042 11.16 12.6761V3.95489H8.35886C7.63131 3.95509 7.0357 3.35948 7.0357 2.63153Z" fill="#EBD32F"/>
<path d="M8.35943 3.95506C7.63109 3.95506 7.03607 3.35985 7.03607 2.6321V0.000366211L11.16 3.95486H8.35943V3.95506Z" fill="#B6A012"/>
<path d="M8.41252 9.17849H2.80372C2.52998 9.17849 2.30811 8.95662 2.30811 8.68287C2.30811 8.40913 2.52998 8.18726 2.80372 8.18726H8.41232C8.68626 8.18726 8.90814 8.40913 8.90814 8.68287C8.90814 8.95662 8.68646 9.17849 8.41252 9.17849Z" fill="#B6A012"/>
<path d="M8.41252 6.60952H2.80372C2.52998 6.60952 2.30811 6.38765 2.30811 6.11391C2.30811 5.84016 2.52998 5.61829 2.80372 5.61829H8.41232C8.68626 5.61829 8.90814 5.84016 8.90814 6.11391C8.90814 6.38765 8.68646 6.60952 8.41252 6.60952Z" fill="#B6A012"/>
<path d="M4.48484 11.7476H2.80372C2.52998 11.7476 2.30811 11.5257 2.30811 11.2522C2.30811 10.9782 2.52998 10.7563 2.80372 10.7563H4.48484C4.75839 10.7563 4.98027 10.9782 4.98027 11.2522C4.98027 11.5257 4.75839 11.7476 4.48484 11.7476Z" fill="#B6A012"/>
</svg>
