<svg width="14" height="14" viewBox="0 0 14 14" fill="none" xmlns="http://www.w3.org/2000/svg">
<path d="M6.44071 6.4407V4.01147C5.2261 4.23522 4.25121 5.2101 4.02747 6.42472H6.44071V6.4407Z" fill="#B6A012"/>
<path d="M7.55933 6.44071H9.97257C9.74882 5.2261 8.77394 4.25121 7.55933 4.02747V6.44071Z" fill="#B6A012"/>
<path d="M6.4407 7.55933H4.01147C4.23522 8.77394 5.2101 9.74882 6.42472 9.97257V7.55933H6.4407Z" fill="#B6A012"/>
<path d="M7.55933 7.55933V9.97257C8.77394 9.74882 9.74882 8.77394 9.97257 7.55933H7.55933Z" fill="#B6A012"/>
<path d="M7.55933 3.05251C9.31732 3.30822 10.6917 4.68265 10.9475 6.44064H14C13.7283 3.00456 10.9954 0.271689 7.55933 0V3.05251Z" fill="#B6A012"/>
<path d="M3.05251 6.44064C3.30822 4.68265 4.68265 3.30822 6.44064 3.05251V0C3.00456 0.271689 0.271689 3.00456 0 6.44064H3.05251Z" fill="#B6A012"/>
<path d="M10.9475 7.55933C10.6917 9.31732 9.31732 10.6917 7.55933 10.9475V14C10.9954 13.7283 13.7283 10.9954 14 7.55933H10.9475Z" fill="#B6A012"/>
<path d="M6.44064 10.9475C4.68265 10.6917 3.30822 9.31732 3.05251 7.55933H0C0.271689 10.9954 3.00456 13.7283 6.44064 14V10.9475Z" fill="#B6A012"/>
</svg>
