<svg width="14" height="15" viewBox="0 0 14 15" fill="none" xmlns="http://www.w3.org/2000/svg">
<path d="M13.3705 9L12.6211 8.5625C11.8091 8.0625 11.8091 6.875 12.6211 6.375L13.3705 5.9375C13.9951 5.5625 14.1825 4.8125 13.8077 4.25L13.1832 3.1875C12.8084 2.5625 12.059 2.375 11.4968 2.75L10.7474 3.1875C9.93544 3.6875 8.87369 3.0625 8.87369 2.125V1.25C8.87369 0.5625 8.31158 0 7.62456 0H6.37544C5.68842 0 5.12631 0.5625 5.12631 1.25V2.0625C5.12631 3 4.06456 3.625 3.25263 3.125L2.50315 2.75C1.87859 2.375 1.12912 2.625 0.816835 3.1875L0.192273 4.25C-0.120008 4.875 0.0673605 5.625 0.629466 6L1.37894 6.4375C2.19087 6.875 2.19087 8.125 1.37894 8.5625L0.629466 9C0.00490426 9.375 -0.182464 10.125 0.192273 10.6875L0.816835 11.75C1.19157 12.375 1.94105 12.5625 2.50315 12.1875L3.25263 11.8125C4.06456 11.3125 5.12631 11.9375 5.12631 12.875V13.75C5.12631 14.4375 5.68842 15 6.37544 15H7.62456C8.31158 15 8.87369 14.4375 8.87369 13.75V12.9375C8.87369 12 9.93544 11.375 10.7474 11.875L11.4968 12.3125C12.1214 12.6875 12.8709 12.4375 13.1832 11.875L13.8077 10.8125C14.12 10.125 13.9326 9.375 13.3705 9ZM7 10C5.62596 10 4.50175 8.875 4.50175 7.5C4.50175 6.125 5.62596 5 7 5C8.37404 5 9.49825 6.125 9.49825 7.5C9.49825 8.875 8.37404 10 7 10Z" fill="white"/>
</svg>
