<svg width="25" height="25" viewBox="0 0 25 25" fill="none" xmlns="http://www.w3.org/2000/svg">
<path d="M24.8125 6.56253V6.72503L22.9875 13.475C22.7718 14.2762 22.2965 14.9832 21.636 15.4854C20.9755 15.9875 20.1672 16.2564 19.3375 16.25H9.775C8.83624 16.2538 7.9302 15.9054 7.23588 15.2736C6.54156 14.6418 6.10948 13.7725 6.025 12.8375L5.2125 3.63753C5.18434 3.32588 5.04031 3.03612 4.80887 2.82551C4.57743 2.6149 4.27542 2.49876 3.9625 2.50003H1.25C0.918479 2.50003 0.600537 2.36833 0.366116 2.13391C0.131696 1.89949 0 1.58155 0 1.25003C0 0.91851 0.131696 0.600568 0.366116 0.366147C0.600537 0.131727 0.918479 3.09034e-05 1.25 3.09034e-05H3.9625C4.90126 -0.00377813 5.8073 0.344652 6.50162 0.97648C7.19593 1.60831 7.62802 2.47757 7.7125 3.41253V3.75003H22.325C22.6813 3.74723 23.0342 3.82065 23.3598 3.96535C23.6854 4.11006 23.9764 4.32271 24.2131 4.58904C24.4499 4.85538 24.627 5.16926 24.7325 5.50962C24.838 5.84999 24.8696 6.20898 24.825 6.56253H24.8125Z" fill="white"/>
<path d="M8.75006 25C10.4759 25 11.8751 23.6009 11.8751 21.875C11.8751 20.1491 10.4759 18.75 8.75006 18.75C7.02417 18.75 5.62506 20.1491 5.62506 21.875C5.62506 23.6009 7.02417 25 8.75006 25Z" fill="white"/>
<path d="M18.75 25C20.4759 25 21.875 23.6009 21.875 21.875C21.875 20.1491 20.4759 18.75 18.75 18.75C17.0241 18.75 15.625 20.1491 15.625 21.875C15.625 23.6009 17.0241 25 18.75 25Z" fill="white"/>
</svg>
