<svg width="14" height="14" viewBox="0 0 14 14" fill="none" xmlns="http://www.w3.org/2000/svg">
<path d="M13.895 3.67502V3.76602L12.873 7.54602C12.7522 7.99467 12.486 8.3906 12.1162 8.6718C11.7463 8.953 11.2936 9.1036 10.829 9.10002H5.474C4.9483 9.10215 4.44091 8.90703 4.05209 8.5532C3.66328 8.19938 3.42131 7.71259 3.374 7.18902L2.919 2.03702C2.90323 1.86249 2.82257 1.70023 2.69297 1.58229C2.56336 1.46435 2.39423 1.39931 2.219 1.40002H0.7C0.514348 1.40002 0.336301 1.32627 0.205025 1.19499C0.0737497 1.06372 0 0.885669 0 0.700017C0 0.514366 0.0737497 0.336318 0.205025 0.205043C0.336301 0.0737671 0.514348 1.73059e-05 0.7 1.73059e-05H2.219C2.7447 -0.00211575 3.25209 0.193005 3.64091 0.546829C4.02972 0.900652 4.27169 1.38744 4.319 1.91102V2.10002H12.502C12.7015 2.09845 12.8991 2.13956 13.0815 2.2206C13.2638 2.30163 13.4268 2.42072 13.5594 2.56986C13.6919 2.71901 13.7911 2.89478 13.8502 3.08539C13.9093 3.27599 13.9269 3.47703 13.902 3.67502H13.895Z" fill="#EBD32F"/>
<path d="M4.90002 14C5.86652 14 6.65002 13.2165 6.65002 12.25C6.65002 11.2835 5.86652 10.5 4.90002 10.5C3.93353 10.5 3.15002 11.2835 3.15002 12.25C3.15002 13.2165 3.93353 14 4.90002 14Z" fill="#B6A012"/>
<path d="M10.5 14C11.4665 14 12.25 13.2165 12.25 12.25C12.25 11.2835 11.4665 10.5 10.5 10.5C9.5335 10.5 8.75 11.2835 8.75 12.25C8.75 13.2165 9.5335 14 10.5 14Z" fill="#B6A012"/>
</svg>
