<svg width="14" height="13" viewBox="0 0 14 13" fill="none" xmlns="http://www.w3.org/2000/svg">
<path d="M0 5.11047V5.61793C0 6.87167 0.970149 7.90152 2.22388 7.99107V11.5582C2.22388 11.812 2.41791 12.006 2.67164 12.006H4.25373C4.50746 12.006 4.70149 11.812 4.70149 11.5582V8.00599H4.95522V2.72241H2.38806C1.07463 2.72241 0 3.79704 0 5.11047Z" fill="#B6A012"/>
<path d="M13.8059 0.080597C13.6865 -0.00895521 13.5224 -0.0238806 13.388 0.0358209L6.01489 3.17015V7.54328L13.388 10.6776C13.6119 10.7672 13.8806 10.6627 13.9701 10.4388C14 10.3791 14 10.3194 14 10.2597V0.453731C14 0.304478 13.9253 0.170149 13.8059 0.080597Z" fill="#EBD32F"/>
</svg>
